#Comment line ignore any data following # character 
#Hierarchical Translation and Rotation (.htr) file 
[Header]	
#Header keywords are followed by a single value 
FileType HTR		#Single word string
DataType HTRS		#Translation followed by rotation and scale data
FileVersion 1		#integer
NumSegments 64		#integer
NumFrames 3		#integer
DataFrameRate 30		#integer, data frame rate in this file
EulerRotationOrder ZYX
CalibrationUnits mm
RotationUnits Degrees
GlobalAxisofGravity Y
BoneLengthAxis Y
ScaleFactor 1.00
[SegmentNames&Hierarchy]
#CHILD	PARENT
Pinger_Root GLOBAL
Pelvis Pinger_Root
L_Hip Pelvis
R_Hip Pelvis
Rear_Leg01 Pelvis
Spine1 Pelvis
L_Leg01 L_Hip
L_Leg02 L_Leg01
L_Leg03 L_Leg02
L_Foot L_Leg03
L_Toe1_01 L_Foot
L_Toe2_01 L_Foot
L_Toe3_01 L_Foot
planeAlignerLeft L_Foot
L_Toe1_02 L_Toe1_01
L_Toe1_03 L_Toe1_02
L_Toe2_02 L_Toe2_01
L_Toe2_03 L_Toe2_02
L_Toe3_02 L_Toe3_01
L_Toe3_03 L_Toe3_02
planeLockWeightLeft planeAlignerLeft
R_Leg01 R_Hip
R_Leg02 R_Leg01
R_Leg03 R_Leg02
R_Foot R_Leg03
planeAlignerRight R_Foot
R_Toe1_01 R_Foot
R_Toe2_01 R_Foot
R_Toe3_01 R_Foot
planeLockWeightRight planeAlignerRight
R_Toe1_02 R_Toe1_01
R_Toe1_03 R_Toe1_02
R_Toe2_02 R_Toe2_01
R_Toe2_03 R_Toe2_02
R_Toe3_02 R_Toe3_01
R_Toe3_03 R_Toe3_02
Rear_Leg02 Rear_Leg01
Rear_Leg03 Rear_Leg02
Rear_Leg04 Rear_Leg03
Rear_Foot Rear_Leg04
planeAlignerCenter Rear_Foot
Rear_Toe1_01 Rear_Foot
Rear_Toe2_01 Rear_Foot
Rear_Toe3_01 Rear_Foot
planeLockWeightCenter planeAlignerCenter
Rear_Toe1_02 Rear_Toe1_01
Rear_Toe1_03 Rear_Toe1_02
Rear_Toe2_02 Rear_Toe2_01
Rear_Toe2_03 Rear_Toe2_02
Rear_Toe3_02 Rear_Toe3_01
Rear_Toe3_03 Rear_Toe3_02
Back_Bone Spine1
Head Spine1
Motor_Bone Back_Bone
Ping_Mechanism Back_Bone
BN_LookIK Head
bottomMouth Head
L_Mouth01 Head
L_mouthFront Head
mouthGun Head
R_Mouth01 Head
R_mouthFront Head
TopMouth Head
weapon_bone Head
[BasePosition]
#SegmentName Tx, Ty, Tz, Rx, Ry, Rz, BoneLength
Pinger_Root 0.000000 0.000000 0.000000 -90.000000 0.000000 0.000000 10.000000 
Pelvis 0.000000 0.000000 0.000000 0.000000 0.000000 0.000000 10.000000 
L_Hip 0.000000 0.000000 0.000000 0.000000 0.000000 0.000000 10.000000 
R_Hip 0.000000 0.000000 0.000000 0.000000 0.000000 0.000000 10.000000 
Rear_Leg01 0.000000 0.000000 0.000000 0.000000 0.000000 0.000000 10.000000 
Spine1 0.000000 0.000000 0.000000 0.000000 0.000000 0.000000 10.000000 
L_Leg01 0.000000 0.000000 0.000000 0.000000 0.000000 0.000000 10.000000 
L_Leg02 0.000000 0.000000 0.000000 0.000000 0.000000 0.000000 10.000000 
L_Leg03 0.000000 0.000000 0.000000 0.000000 0.000000 0.000000 10.000000 
L_Foot 0.000000 0.000000 0.000000 0.000000 0.000000 0.000000 10.000000 
L_Toe1_01 0.000000 0.000000 0.000000 0.000000 0.000000 0.000000 10.000000 
L_Toe2_01 0.000000 0.000000 0.000000 0.000000 0.000000 0.000000 10.000000 
L_Toe3_01 0.000000 0.000000 0.000000 0.000000 0.000000 0.000000 10.000000 
planeAlignerLeft 0.000000 0.000000 0.000000 0.000000 0.000000 0.000000 10.000000 
L_Toe1_02 0.000000 0.000000 0.000000 0.000000 0.000000 0.000000 10.000000 
L_Toe1_03 0.000000 0.000000 0.000000 0.000000 0.000000 0.000000 10.000000 
L_Toe2_02 0.000000 0.000000 0.000000 0.000000 0.000000 0.000000 10.000000 
L_Toe2_03 0.000000 0.000000 0.000000 0.000000 0.000000 0.000000 10.000000 
L_Toe3_02 0.000000 0.000000 0.000000 0.000000 0.000000 0.000000 10.000000 
L_Toe3_03 0.000000 0.000000 0.000000 0.000000 0.000000 0.000000 10.000000 
planeLockWeightLeft 0.000000 0.000000 0.000000 0.000000 0.000000 0.000000 10.000000 
R_Leg01 0.000000 0.000000 0.000000 0.000000 0.000000 0.000000 10.000000 
R_Leg02 0.000000 0.000000 0.000000 0.000000 0.000000 0.000000 10.000000 
R_Leg03 0.000000 0.000000 0.000000 0.000000 0.000000 0.000000 10.000000 
R_Foot 0.000000 0.000000 0.000000 0.000000 0.000000 0.000000 10.000000 
planeAlignerRight 0.000000 0.000000 0.000000 0.000000 0.000000 0.000000 10.000000 
R_Toe1_01 0.000000 0.000000 0.000000 0.000000 0.000000 0.000000 10.000000 
R_Toe2_01 0.000000 0.000000 0.000000 0.000000 0.000000 0.000000 10.000000 
R_Toe3_01 0.000000 0.000000 0.000000 0.000000 0.000000 0.000000 10.000000 
planeLockWeightRight 0.000000 0.000000 0.000000 0.000000 0.000000 0.000000 10.000000 
R_Toe1_02 0.000000 0.000000 0.000000 0.000000 0.000000 0.000000 10.000000 
R_Toe1_03 0.000000 0.000000 0.000000 0.000000 0.000000 0.000000 10.000000 
R_Toe2_02 0.000000 0.000000 0.000000 0.000000 0.000000 0.000000 10.000000 
R_Toe2_03 0.000000 0.000000 0.000000 0.000000 0.000000 0.000000 10.000000 
R_Toe3_02 0.000000 0.000000 0.000000 0.000000 0.000000 0.000000 10.000000 
R_Toe3_03 0.000000 0.000000 0.000000 0.000000 0.000000 0.000000 10.000000 
Rear_Leg02 0.000000 0.000000 0.000000 0.000000 0.000000 0.000000 10.000000 
Rear_Leg03 0.000000 0.000000 0.000000 0.000000 0.000000 0.000000 10.000000 
Rear_Leg04 0.000000 0.000000 0.000000 0.000000 0.000000 0.000000 10.000000 
Rear_Foot 0.000000 0.000000 0.000000 0.000000 0.000000 0.000000 10.000000 
planeAlignerCenter 0.000000 0.000000 0.000000 0.000000 0.000000 0.000000 10.000000 
Rear_Toe1_01 0.000000 0.000000 0.000000 0.000000 0.000000 0.000000 10.000000 
Rear_Toe2_01 0.000000 0.000000 0.000000 0.000000 0.000000 0.000000 10.000000 
Rear_Toe3_01 0.000000 0.000000 0.000000 0.000000 0.000000 0.000000 10.000000 
planeLockWeightCenter 0.000000 0.000000 0.000000 0.000000 0.000000 0.000000 10.000000 
Rear_Toe1_02 0.000000 0.000000 0.000000 0.000000 0.000000 0.000000 10.000000 
Rear_Toe1_03 0.000000 0.000000 0.000000 0.000000 0.000000 0.000000 10.000000 
Rear_Toe2_02 0.000000 0.000000 0.000000 0.000000 0.000000 0.000000 10.000000 
Rear_Toe2_03 0.000000 0.000000 0.000000 0.000000 0.000000 0.000000 10.000000 
Rear_Toe3_02 0.000000 0.000000 0.000000 0.000000 0.000000 0.000000 10.000000 
Rear_Toe3_03 0.000000 0.000000 0.000000 0.000000 0.000000 0.000000 10.000000 
Back_Bone 0.000000 0.000000 0.000000 0.000000 0.000000 0.000000 10.000000 
Head 0.000000 0.000000 0.000000 0.000000 0.000000 0.000000 10.000000 
Motor_Bone 0.000000 0.000000 0.000000 0.000000 0.000000 0.000000 10.000000 
Ping_Mechanism 0.000000 0.000000 0.000000 0.000000 0.000000 0.000000 10.000000 
BN_LookIK 0.000000 0.000000 0.000000 0.000000 0.000000 0.000000 10.000000 
bottomMouth 0.000000 0.000000 0.000000 0.000000 0.000000 0.000000 10.000000 
L_Mouth01 0.000000 0.000000 0.000000 0.000000 0.000000 0.000000 10.000000 
L_mouthFront 0.000000 0.000000 0.000000 0.000000 0.000000 0.000000 10.000000 
mouthGun 0.000000 0.000000 0.000000 0.000000 0.000000 0.000000 10.000000 
R_Mouth01 0.000000 0.000000 0.000000 0.000000 0.000000 0.000000 10.000000 
R_mouthFront 0.000000 0.000000 0.000000 0.000000 0.000000 0.000000 10.000000 
TopMouth 0.000000 0.000000 0.000000 0.000000 0.000000 0.000000 10.000000 
weapon_bone 0.000000 0.000000 0.000000 0.000000 0.000000 0.000000 10.000000 
#Beginning of Data. Separated by tabs
#Fr	Tx	Ty	Tz	Rx	Ry	Rz	SF
[Pinger_Root]
5 0.000000 0.000000 0.000000 -0.000075 -0.000000 -0.000020 0.000000
6 0.000000 0.000000 0.000000 -0.000075 -0.000000 -0.000020 0.000000
7 0.000000 0.000000 0.000000 -0.000075 -0.000000 -0.000020 0.000000
[Pelvis]
5 76.348045 955.250977 4266.424805 -122.906349 -86.381660 115.263771 4372.723633
6 78.888611 946.000488 4286.015137 -124.156464 -86.757805 116.521652 4389.881836
7 82.125877 922.144348 4338.854980 -120.063278 -87.295639 112.441673 4436.525391
[L_Hip]
5 5.766392 125.831482 872.656799 160.158691 -45.484905 122.312202 881.701050
6 5.766392 125.831482 872.656799 160.158691 -45.484894 122.312202 881.701050
7 5.766392 125.831482 872.656799 160.158691 -45.484894 122.312202 881.701050
[R_Hip]
5 5.765438 125.836372 -872.654907 38.087841 49.812687 125.703735 881.699829
6 5.765438 125.836372 -872.654907 38.087841 49.812687 125.703735 881.699829
7 5.765438 125.836372 -872.654907 38.087830 49.812672 125.703735 881.699829
[Rear_Leg01]
5 -192.298416 -925.602966 -0.001907 169.154694 0.969877 -156.923996 945.367432
6 -192.298416 -925.602966 -0.001907 169.207794 1.038877 -156.778809 945.367432
7 -192.298416 -925.602966 -0.001907 169.358948 1.271792 -157.039917 945.367432
[Spine1]
5 290.604584 5.007505 0.000477 7.719640 0.903115 17.349005 290.647736
6 290.604584 5.007505 0.000477 7.672951 0.705701 18.167475 290.647736
7 290.604584 5.007505 0.000477 7.544341 0.187762 19.718672 290.647736
[L_Leg01]
5 761.932007 -0.002384 -0.069261 25.740202 -7.588296 -11.190712 761.932068
6 761.932007 -0.002384 -0.069261 25.651875 -8.462808 -11.040791 761.932068
7 761.932007 -0.002384 -0.069261 24.938040 -11.037501 -9.981238 761.932068
[L_Leg02]
5 1441.140503 -0.000954 -0.000715 9.579233 0.397550 -130.235672 1441.140503
6 1441.140503 -0.000954 -0.000715 8.682653 0.155211 -129.995300 1441.140503
7 1441.140503 -0.000954 -0.000715 6.495429 -0.255072 -129.755524 1441.140503
[L_Leg03]
5 1686.963989 -0.000715 -0.000954 -0.057694 0.029836 126.103325 1686.963989
6 1686.963989 -0.000715 -0.000954 -0.051375 0.027050 124.717560 1686.963989
7 1686.963989 -0.000715 -0.000954 -0.043025 0.019257 121.159706 1686.963989
[L_Foot]
5 3041.570068 -30.715107 11.297464 3.960972 10.410934 53.814899 3041.746094
6 3041.570068 -30.715107 11.297464 3.643327 10.619850 54.058708 3041.746094
7 3041.570068 -30.715107 11.297464 2.975032 11.218205 54.813042 3041.746094
[L_Toe1_01]
5 -188.216690 -224.732346 -21.137953 93.763771 -6.967691 -172.589096 293.899567
6 -188.216690 -224.732346 -21.137953 93.775108 -6.993912 -172.743805 293.899567
7 -188.216690 -224.732346 -21.137953 93.786537 -7.020103 -172.898514 293.899567
[L_Toe2_01]
5 200.746536 -219.926590 148.838394 -90.295311 -26.654425 -51.818920 332.896027
6 200.746536 -219.926590 148.838394 -90.365013 -26.761023 -51.583477 332.896027
7 200.746536 -219.926590 148.838394 -90.435272 -26.867371 -51.347664 332.896027
[L_Toe3_01]
5 188.832520 -219.859131 -191.078659 -99.617355 14.028271 -66.676697 347.140900
6 188.832520 -219.859131 -191.078659 -99.565170 14.073784 -66.391579 347.140900
7 188.832520 -219.859131 -191.078659 -99.512733 14.119046 -66.106369 347.140900
[planeAlignerLeft]
5 31.746447 -579.756287 102.647186 169.306686 -76.298271 89.968506 589.628357
6 31.365356 -575.885498 103.125610 169.306686 -76.298271 89.968506 585.886292
7 30.764008 -572.816406 103.879295 169.306686 -76.298271 89.968506 582.971680
[L_Toe1_02]
5 413.761139 0.000477 0.000000 0.000203 -25.410625 -0.000182 413.761139
6 413.761139 0.000477 0.000000 0.000203 -25.410625 -0.000182 413.761139
7 413.761139 0.000477 0.000000 0.000203 -25.410625 -0.000182 413.761139
[L_Toe1_03]
5 464.317322 0.000358 -0.000089 0.003743 53.456543 0.003743 464.317322
6 464.317322 0.000358 -0.000089 0.003746 53.480888 0.003746 464.317322
7 464.317322 0.000358 -0.000089 0.003739 53.408062 0.003739 464.317322
[L_Toe2_02]
5 342.235809 -0.000477 0.000238 0.001187 -72.879433 0.001187 342.235809
6 342.235809 -0.000477 0.000238 0.001187 -72.998817 0.001187 342.235809
7 342.235809 -0.000477 0.000238 0.001186 -73.118149 0.001186 342.235809
[L_Toe2_03]
5 420.210846 -0.000715 0.000000 -0.006172 86.754417 -0.003549 420.210846
6 420.210846 -0.000715 0.000000 -0.024925 87.157860 -0.021427 420.210846
7 420.210846 -0.000715 0.000000 -0.027874 87.478889 -0.024377 420.210846
[L_Toe3_02]
5 329.270111 0.000954 0.000000 0.001177 -80.912262 0.001177 329.270111
6 329.270111 0.000954 0.000000 0.001177 -81.020264 0.001177 329.270111
7 329.270111 0.000954 0.000000 0.001177 -81.128235 0.001177 329.270111
[L_Toe3_03]
5 439.137451 -0.001907 0.000954 -179.996780 76.745171 -179.993256 439.137451
6 439.137451 -0.001907 0.000954 -179.996979 76.201591 -179.993454 439.137451
7 439.137451 -0.001907 0.000954 -179.997162 75.658051 -179.993637 439.137451
[planeLockWeightLeft]
5 999.998718 0.097961 0.076027 -0.011826 -0.004376 0.005620 999.998779
6 999.998718 0.097961 0.076027 -0.011826 -0.004376 0.005620 999.998779
7 999.998718 0.097961 0.076027 -0.011826 -0.004376 0.005620 999.998779
[R_Leg01]
5 761.455627 -0.001907 -0.000358 119.740501 1.359023 36.923523 761.455688
6 761.455627 -0.001907 -0.000358 119.735497 -0.063362 36.638199 761.455688
7 761.455627 -0.001907 -0.000358 119.906921 -4.373666 35.427994 761.455688
[R_Leg02]
5 1441.140625 0.000000 -0.000238 -8.204005 -1.964668 -112.675171 1441.140625
6 1441.140625 0.000000 -0.000238 -7.444041 -1.644180 -114.316368 1441.140625
7 1441.140625 0.000000 -0.000238 -5.498377 -0.935951 -118.541283 1441.140625
[R_Leg03]
5 1686.963989 0.000954 0.001431 0.099331 -0.058167 136.741974 1686.963989
6 1686.963989 0.000954 0.001431 0.093365 -0.054626 135.798767 1686.963989
7 1686.963989 0.000954 0.001431 0.086113 -0.045370 133.192291 1686.963989
[R_Foot]
5 3041.560059 -30.531288 -11.204481 -3.052552 -24.266136 52.879021 3041.734131
6 3041.560059 -30.531288 -11.204481 -2.830554 -24.051592 53.624371 3041.734131
7 3041.560059 -30.531288 -11.204481 -2.220936 -23.775602 55.507233 3041.734131
[planeAlignerRight]
5 -128.534683 -560.685974 -314.621796 -36.577137 -71.339012 -64.343925 655.649902
6 -128.959961 -556.794006 -315.148376 -36.577137 -71.339012 -64.343925 652.662842
7 -129.633865 -553.685486 -315.975281 -36.577137 -71.339012 -64.343925 650.548157
[R_Toe1_01]
5 -188.383347 -224.864899 21.052242 76.778442 -0.339232 -173.477493 294.101532
6 -188.383347 -224.864899 21.052242 76.780556 -0.307780 -173.680038 294.101532
7 -188.383347 -224.864899 21.052242 76.782562 -0.276321 -173.882568 294.101532
[R_Toe2_01]
5 200.637817 -220.002121 -148.787384 -91.494179 33.291290 -58.489998 332.857574
6 200.637817 -220.002121 -148.787384 -91.443604 33.406185 -58.333908 332.857574
7 200.637817 -220.002121 -148.787384 -91.392586 33.520966 -58.177475 332.857574
[R_Toe3_01]
5 188.606735 -220.092957 191.126343 -73.265961 -8.612450 -73.006721 347.192566
6 188.606735 -220.092957 191.126343 -73.282333 -8.652214 -72.794029 347.192566
7 188.606735 -220.092957 191.126343 -73.298851 -8.691915 -72.581322 347.192566
[planeLockWeightRight]
5 999.999329 0.000000 0.076017 -0.011823 -0.004379 -0.000027 999.999329
6 999.999329 0.000000 0.076017 -0.011823 -0.004379 -0.000027 999.999329
7 999.999329 0.000000 0.076017 -0.011823 -0.004379 -0.000027 999.999329
[R_Toe1_02]
5 413.762085 0.000477 -0.000119 0.001395 -24.611393 0.001395 413.762085
6 413.762085 0.000477 -0.000119 0.001395 -24.599379 0.001395 413.762085
7 413.762085 0.000477 -0.000119 0.001395 -24.587347 0.001395 413.762085
[R_Toe1_03]
5 464.317810 0.000000 0.001088 0.006728 69.906937 0.006728 464.317810
6 464.317810 0.000000 0.001088 0.006754 69.985291 0.006754 464.317810
7 464.317810 0.000000 0.001088 0.006754 69.985298 0.006754 464.317810
[R_Toe2_02]
5 342.234741 -0.000954 0.000238 0.001196 -67.908340 0.001196 342.234741
6 342.234741 -0.000954 0.000238 0.001195 -68.094360 0.001195 342.234741
7 342.234741 -0.000954 0.000238 0.001195 -68.280411 0.001195 342.234741
[R_Toe2_03]
5 420.210846 0.000715 -0.000268 0.009048 75.094353 0.009048 420.210846
6 420.210846 0.000715 -0.000268 0.009317 75.526619 0.009317 420.210846
7 420.210846 0.000715 -0.000268 0.009539 75.866028 0.009539 420.210846
[R_Toe3_02]
5 329.270355 -0.000477 -0.000954 0.001183 -75.347412 0.001183 329.270355
6 329.270355 -0.000477 -0.000954 0.001183 -75.578201 0.001183 329.270355
7 329.270355 -0.000477 -0.000954 0.001183 -75.809090 0.001183 329.270355
[R_Toe3_03]
5 439.137939 0.000238 0.001431 -0.016829 85.631432 -0.013330 439.137939
6 439.137939 0.000238 0.001431 -0.019043 86.190651 -0.015544 439.137939
7 439.137939 0.000238 0.001431 -0.022018 86.749962 -0.018519 439.137939
[Rear_Leg02]
5 1162.777710 -0.029802 0.005960 0.867899 -2.852238 -128.549210 1162.777710
6 1162.777710 -0.029802 0.005960 0.851971 -2.857341 -128.175079 1162.777710
7 1162.777710 -0.029802 0.005960 0.796892 -2.874568 -127.032356 1162.777710
[Rear_Leg03]
5 607.192505 -0.013351 -0.073195 0.010582 -0.004918 66.206795 607.192505
6 607.192505 -0.013351 -0.073195 0.010587 -0.004906 66.076958 607.192505
7 607.192505 -0.013351 -0.073195 0.010604 -0.004869 65.676239 607.192505
[Rear_Leg04]
5 995.874512 -0.020504 -0.011921 -0.043556 -0.018024 62.103333 995.874573
6 995.874512 -0.020504 -0.011921 -0.043513 -0.018127 61.832199 995.874573
7 995.874512 -0.020504 -0.011921 -0.043380 -0.018443 60.998119 995.874573
[Rear_Foot]
5 3096.176270 -0.067472 -0.041425 -146.704041 85.543365 47.420498 3096.176270
6 3096.176270 -0.067472 -0.041425 -146.699875 85.530029 47.244766 3096.176270
7 3096.176270 -0.067472 -0.041425 -146.232513 85.543106 47.179890 3096.176270
[planeAlignerCenter]
5 1.038399 -16.632917 -764.045959 12.240772 -0.001473 179.998184 764.227722
6 1.038475 -17.067869 -760.221741 12.240772 -0.001473 179.998184 760.414001
7 1.038689 -17.752991 -757.226318 12.240772 -0.001473 179.998184 757.435120
[Rear_Toe1_01]
5 0.653352 83.966492 -371.173737 0.285456 40.981541 90.407478 380.553192
6 0.653352 83.966492 -371.173737 0.284391 40.715446 90.407822 380.553192
7 0.653352 83.966492 -371.173737 0.283320 40.449368 90.408173 380.553192
[Rear_Toe2_01]
5 178.200760 -294.826019 -362.060547 -7.300158 33.719151 -66.336502 499.765686
6 178.200760 -294.826019 -362.060547 -7.324168 33.560139 -66.358849 499.765686
7 178.200760 -294.826019 -362.060547 -7.348064 33.401112 -66.381081 499.765686
[Rear_Toe3_01]
5 -153.359680 -308.780914 -362.060852 3.345982 32.842770 -112.477013 499.952881
6 -153.359680 -308.780914 -362.060852 3.359915 32.673950 -112.461227 499.952881
7 -153.359680 -308.780914 -362.060852 3.373770 32.505135 -112.445518 499.952881
[planeLockWeightCenter]
5 1000.000000 0.000305 0.076256 -0.011814 -0.004373 -0.000015 1000.000000
6 1000.000000 0.000305 0.076256 -0.011814 -0.004373 -0.000015 1000.000000
7 1000.000000 0.000305 0.076256 -0.011814 -0.004373 -0.000015 1000.000000
[Rear_Toe1_02]
5 379.707825 0.194073 0.000477 -0.000272 -32.095367 0.006951 379.707855
6 379.707825 0.194073 0.000477 -0.000280 -32.200024 0.006955 379.707855
7 379.707825 0.194073 0.000477 -0.000288 -32.304676 0.006960 379.707855
[Rear_Toe1_03]
5 500.129700 0.165701 0.000119 0.000187 54.580105 0.007529 500.129761
6 500.129700 0.165701 0.000119 -0.000740 55.239330 0.005672 500.129761
7 500.129700 0.165701 0.000119 -0.001722 55.898624 0.003765 500.129761
[Rear_Toe2_02]
5 340.494507 0.000238 -0.000954 0.001192 -70.013237 0.001192 340.494507
6 340.494507 0.000238 -0.000954 0.001192 -70.052910 0.001192 340.494507
7 340.494507 0.000238 -0.000954 0.001192 -70.092575 0.001192 340.494507
[Rear_Toe2_03]
5 433.103577 0.000000 0.000238 0.006802 70.129143 0.006802 433.103546
6 433.103577 0.000000 0.000238 0.006829 70.208824 0.006829 433.103546
7 433.103577 0.000000 0.000238 0.006830 70.212273 0.006830 433.103546
[Rear_Toe3_02]
5 340.494141 -0.000358 -0.000477 0.008339 -67.407196 -0.009511 340.494171
6 340.494141 -0.000358 -0.000477 0.008352 -67.440323 -0.009524 340.494171
7 340.494141 -0.000358 -0.000477 0.008365 -67.473434 -0.009537 340.494171
[Rear_Toe3_03]
5 433.103577 0.001431 -0.000238 -0.001005 66.242287 -0.004579 433.103546
6 433.103577 0.001431 -0.000238 -0.001014 66.313095 -0.004587 433.103546
7 433.103577 0.001431 -0.000238 -0.001013 66.308868 -0.004586 433.103546
[Back_Bone]
5 1312.175781 -701.934692 0.000954 1.476979 0.001718 -85.608841 1488.125488
6 1312.175781 -701.934692 0.000954 1.473768 0.022422 -86.393059 1488.125488
7 1312.175781 -701.934692 0.000954 1.466438 0.069449 -88.410652 1488.125488
[Head]
5 1406.159424 809.709290 0.001431 -0.043512 -1.469522 8.148726 1622.625488
6 1406.159424 809.709290 0.001431 -0.054540 -1.467951 8.243899 1622.625488
7 1406.159424 809.709290 0.001431 -0.065565 -1.466361 8.339073 1622.625488
[Motor_Bone]
5 1158.364380 -417.834747 0.000477 -0.095385 0.076104 -105.915703 1231.419434
6 1158.364380 -417.834747 0.000477 -0.095385 0.076104 -105.915726 1231.419434
7 1158.364380 -417.834747 0.000477 -0.095385 0.076104 -105.915703 1231.419434
[Ping_Mechanism]
5 1230.604492 -439.412231 -7.160406 0.000103 -0.000053 82.120995 1306.721802
6 1229.599854 -433.577850 -6.672716 0.000103 -0.000053 82.120995 1303.821411
7 1229.869385 -417.525604 -4.986179 0.000103 -0.000053 82.120995 1298.819092
[BN_LookIK]
5 193.241119 1380.371704 -0.002861 0.000000 89.965736 -31.038179 1393.832153
6 193.241119 1380.371704 -0.002861 0.000000 89.965736 -31.038179 1393.832153
7 193.241119 1380.371704 -0.002861 0.000000 89.965736 -31.038179 1393.832153
[bottomMouth]
5 -435.092926 615.759399 -0.000954 -0.000022 0.000016 73.527184 753.966492
6 -435.092926 615.759399 -0.000954 -0.000022 0.000016 73.527184 753.966492
7 -435.092926 615.759399 -0.000954 -0.000022 0.000016 73.527184 753.966492
[L_Mouth01]
5 554.440979 7.658243 838.222046 150.204178 23.759130 109.605339 1005.027161
6 554.440979 7.658243 838.222046 150.204178 23.759130 109.605339 1005.027161
7 554.440979 7.658243 838.222046 150.204178 23.759130 109.605339 1005.027161
[L_mouthFront]
5 551.629089 934.514771 339.150421 0.000081 2.804060 79.119301 1136.941284
6 551.629089 934.514771 339.150421 0.000081 2.804060 79.119301 1136.941284
7 551.629089 934.514771 339.150421 0.000081 2.804060 79.119301 1136.941284
[mouthGun]
5 55.332661 1627.420898 0.000000 0.000023 0.000009 -11.038128 1628.361328
6 55.332661 1627.420898 0.000000 0.000023 0.000009 -11.038128 1628.361328
7 55.332661 1627.420898 0.000000 0.000023 0.000009 -11.038128 1628.361328
[R_Mouth01]
5 554.442383 7.659197 -838.223938 29.795891 -23.759109 109.605331 1005.029541
6 554.442383 7.659197 -838.223938 29.795891 -23.759109 109.605331 1005.029541
7 554.442383 7.659197 -838.223938 29.795891 -23.759109 109.605331 1005.029541
[R_mouthFront]
5 551.629089 934.514282 -339.151367 0.000029 -2.803930 79.119133 1136.941162
6 551.629089 934.514282 -339.151367 0.000029 -2.803930 79.119133 1136.941162
7 551.629089 934.514282 -339.151367 0.000029 -2.803930 79.119133 1136.941162
[TopMouth]
5 461.269867 -56.106091 -0.008583 -0.000059 -0.000268 92.025169 464.669525
6 461.269867 -56.106091 -0.008583 -0.000059 -0.000268 92.025169 464.669525
7 461.269867 -56.106091 -0.008583 -0.000059 -0.000268 92.025169 464.669525
[weapon_bone]
5 -987.239868 1448.372803 0.001431 0.000000 89.965736 -31.038221 1752.833740
6 -987.239868 1448.372803 0.001431 0.000000 89.965736 -31.038221 1752.833740
7 -987.239868 1448.372803 0.001431 0.000000 89.965736 -31.038221 1752.833740
